<mxfile host="app.diagrams.net" modified="2022-10-26T11:54:04.529Z" agent="5.0 (Windows NT 10.0; Win64; x64) AppleWebKit/537.36 (KHTML, like Gecko) Chrome/105.0.0.0 Safari/537.36 OPR/91.0.4516.95" etag="aRyFJf6qWZaLsfZfO9Je" version="17.4.5" type="github">
  <diagram id="80ApI3LMpOOb_6bQAasI" name="Page-1">
    <mxGraphModel dx="997" dy="571" grid="1" gridSize="10" guides="1" tooltips="1" connect="1" arrows="1" fold="1" page="1" pageScale="1" pageWidth="850" pageHeight="1100" math="0" shadow="0">
      <root>
        <mxCell id="0" />
        <mxCell id="1" parent="0" />
        <mxCell id="NDZbGmGjMDrp22aeR6rB-1" value="" style="shape=table;html=1;whiteSpace=wrap;startSize=0;container=1;collapsible=0;childLayout=tableLayout;" vertex="1" parent="1">
          <mxGeometry x="180" y="40" width="100" height="70" as="geometry" />
        </mxCell>
        <mxCell id="NDZbGmGjMDrp22aeR6rB-2" value="" style="shape=tableRow;horizontal=0;startSize=0;swimlaneHead=0;swimlaneBody=0;top=0;left=0;bottom=0;right=0;collapsible=0;dropTarget=0;fillColor=none;points=[[0,0.5],[1,0.5]];portConstraint=eastwest;" vertex="1" parent="NDZbGmGjMDrp22aeR6rB-1">
          <mxGeometry width="100" height="23" as="geometry" />
        </mxCell>
        <mxCell id="NDZbGmGjMDrp22aeR6rB-3" value="" style="shape=partialRectangle;html=1;whiteSpace=wrap;connectable=0;fillColor=none;top=0;left=0;bottom=0;right=0;overflow=hidden;" vertex="1" parent="NDZbGmGjMDrp22aeR6rB-2">
          <mxGeometry width="35" height="23" as="geometry">
            <mxRectangle width="35" height="23" as="alternateBounds" />
          </mxGeometry>
        </mxCell>
        <mxCell id="NDZbGmGjMDrp22aeR6rB-4" value="2" style="shape=partialRectangle;html=1;whiteSpace=wrap;connectable=0;fillColor=none;top=0;left=0;bottom=0;right=0;overflow=hidden;" vertex="1" parent="NDZbGmGjMDrp22aeR6rB-2">
          <mxGeometry x="35" width="32" height="23" as="geometry">
            <mxRectangle width="32" height="23" as="alternateBounds" />
          </mxGeometry>
        </mxCell>
        <mxCell id="NDZbGmGjMDrp22aeR6rB-5" value="3" style="shape=partialRectangle;html=1;whiteSpace=wrap;connectable=0;fillColor=none;top=0;left=0;bottom=0;right=0;overflow=hidden;" vertex="1" parent="NDZbGmGjMDrp22aeR6rB-2">
          <mxGeometry x="67" width="33" height="23" as="geometry">
            <mxRectangle width="33" height="23" as="alternateBounds" />
          </mxGeometry>
        </mxCell>
        <mxCell id="NDZbGmGjMDrp22aeR6rB-6" value="" style="shape=tableRow;horizontal=0;startSize=0;swimlaneHead=0;swimlaneBody=0;top=0;left=0;bottom=0;right=0;collapsible=0;dropTarget=0;fillColor=none;points=[[0,0.5],[1,0.5]];portConstraint=eastwest;" vertex="1" parent="NDZbGmGjMDrp22aeR6rB-1">
          <mxGeometry y="23" width="100" height="24" as="geometry" />
        </mxCell>
        <mxCell id="NDZbGmGjMDrp22aeR6rB-7" value="1" style="shape=partialRectangle;html=1;whiteSpace=wrap;connectable=0;fillColor=none;top=0;left=0;bottom=0;right=0;overflow=hidden;" vertex="1" parent="NDZbGmGjMDrp22aeR6rB-6">
          <mxGeometry width="35" height="24" as="geometry">
            <mxRectangle width="35" height="24" as="alternateBounds" />
          </mxGeometry>
        </mxCell>
        <mxCell id="NDZbGmGjMDrp22aeR6rB-8" value="4" style="shape=partialRectangle;html=1;whiteSpace=wrap;connectable=0;fillColor=none;top=0;left=0;bottom=0;right=0;overflow=hidden;" vertex="1" parent="NDZbGmGjMDrp22aeR6rB-6">
          <mxGeometry x="35" width="32" height="24" as="geometry">
            <mxRectangle width="32" height="24" as="alternateBounds" />
          </mxGeometry>
        </mxCell>
        <mxCell id="NDZbGmGjMDrp22aeR6rB-9" value="5" style="shape=partialRectangle;html=1;whiteSpace=wrap;connectable=0;fillColor=none;top=0;left=0;bottom=0;right=0;overflow=hidden;" vertex="1" parent="NDZbGmGjMDrp22aeR6rB-6">
          <mxGeometry x="67" width="33" height="24" as="geometry">
            <mxRectangle width="33" height="24" as="alternateBounds" />
          </mxGeometry>
        </mxCell>
        <mxCell id="NDZbGmGjMDrp22aeR6rB-10" value="" style="shape=tableRow;horizontal=0;startSize=0;swimlaneHead=0;swimlaneBody=0;top=0;left=0;bottom=0;right=0;collapsible=0;dropTarget=0;fillColor=none;points=[[0,0.5],[1,0.5]];portConstraint=eastwest;" vertex="1" parent="NDZbGmGjMDrp22aeR6rB-1">
          <mxGeometry y="47" width="100" height="23" as="geometry" />
        </mxCell>
        <mxCell id="NDZbGmGjMDrp22aeR6rB-11" value="7" style="shape=partialRectangle;html=1;whiteSpace=wrap;connectable=0;fillColor=none;top=0;left=0;bottom=0;right=0;overflow=hidden;" vertex="1" parent="NDZbGmGjMDrp22aeR6rB-10">
          <mxGeometry width="35" height="23" as="geometry">
            <mxRectangle width="35" height="23" as="alternateBounds" />
          </mxGeometry>
        </mxCell>
        <mxCell id="NDZbGmGjMDrp22aeR6rB-12" value="8" style="shape=partialRectangle;html=1;whiteSpace=wrap;connectable=0;fillColor=none;top=0;left=0;bottom=0;right=0;overflow=hidden;" vertex="1" parent="NDZbGmGjMDrp22aeR6rB-10">
          <mxGeometry x="35" width="32" height="23" as="geometry">
            <mxRectangle width="32" height="23" as="alternateBounds" />
          </mxGeometry>
        </mxCell>
        <mxCell id="NDZbGmGjMDrp22aeR6rB-13" value="6" style="shape=partialRectangle;html=1;whiteSpace=wrap;connectable=0;fillColor=none;top=0;left=0;bottom=0;right=0;overflow=hidden;pointerEvents=1;" vertex="1" parent="NDZbGmGjMDrp22aeR6rB-10">
          <mxGeometry x="67" width="33" height="23" as="geometry">
            <mxRectangle width="33" height="23" as="alternateBounds" />
          </mxGeometry>
        </mxCell>
        <mxCell id="NDZbGmGjMDrp22aeR6rB-27" value="" style="shape=table;html=1;whiteSpace=wrap;startSize=0;container=1;collapsible=0;childLayout=tableLayout;" vertex="1" parent="1">
          <mxGeometry x="80" y="180" width="100" height="70" as="geometry" />
        </mxCell>
        <mxCell id="NDZbGmGjMDrp22aeR6rB-28" value="" style="shape=tableRow;horizontal=0;startSize=0;swimlaneHead=0;swimlaneBody=0;top=0;left=0;bottom=0;right=0;collapsible=0;dropTarget=0;fillColor=none;points=[[0,0.5],[1,0.5]];portConstraint=eastwest;" vertex="1" parent="NDZbGmGjMDrp22aeR6rB-27">
          <mxGeometry width="100" height="23" as="geometry" />
        </mxCell>
        <mxCell id="NDZbGmGjMDrp22aeR6rB-29" value="2" style="shape=partialRectangle;html=1;whiteSpace=wrap;connectable=0;fillColor=none;top=0;left=0;bottom=0;right=0;overflow=hidden;" vertex="1" parent="NDZbGmGjMDrp22aeR6rB-28">
          <mxGeometry width="35" height="23" as="geometry">
            <mxRectangle width="35" height="23" as="alternateBounds" />
          </mxGeometry>
        </mxCell>
        <mxCell id="NDZbGmGjMDrp22aeR6rB-30" value="" style="shape=partialRectangle;html=1;whiteSpace=wrap;connectable=0;fillColor=none;top=0;left=0;bottom=0;right=0;overflow=hidden;" vertex="1" parent="NDZbGmGjMDrp22aeR6rB-28">
          <mxGeometry x="35" width="32" height="23" as="geometry">
            <mxRectangle width="32" height="23" as="alternateBounds" />
          </mxGeometry>
        </mxCell>
        <mxCell id="NDZbGmGjMDrp22aeR6rB-31" value="3" style="shape=partialRectangle;html=1;whiteSpace=wrap;connectable=0;fillColor=none;top=0;left=0;bottom=0;right=0;overflow=hidden;" vertex="1" parent="NDZbGmGjMDrp22aeR6rB-28">
          <mxGeometry x="67" width="33" height="23" as="geometry">
            <mxRectangle width="33" height="23" as="alternateBounds" />
          </mxGeometry>
        </mxCell>
        <mxCell id="NDZbGmGjMDrp22aeR6rB-32" value="" style="shape=tableRow;horizontal=0;startSize=0;swimlaneHead=0;swimlaneBody=0;top=0;left=0;bottom=0;right=0;collapsible=0;dropTarget=0;fillColor=none;points=[[0,0.5],[1,0.5]];portConstraint=eastwest;" vertex="1" parent="NDZbGmGjMDrp22aeR6rB-27">
          <mxGeometry y="23" width="100" height="24" as="geometry" />
        </mxCell>
        <mxCell id="NDZbGmGjMDrp22aeR6rB-33" value="1" style="shape=partialRectangle;html=1;whiteSpace=wrap;connectable=0;fillColor=none;top=0;left=0;bottom=0;right=0;overflow=hidden;" vertex="1" parent="NDZbGmGjMDrp22aeR6rB-32">
          <mxGeometry width="35" height="24" as="geometry">
            <mxRectangle width="35" height="24" as="alternateBounds" />
          </mxGeometry>
        </mxCell>
        <mxCell id="NDZbGmGjMDrp22aeR6rB-34" value="4" style="shape=partialRectangle;html=1;whiteSpace=wrap;connectable=0;fillColor=none;top=0;left=0;bottom=0;right=0;overflow=hidden;" vertex="1" parent="NDZbGmGjMDrp22aeR6rB-32">
          <mxGeometry x="35" width="32" height="24" as="geometry">
            <mxRectangle width="32" height="24" as="alternateBounds" />
          </mxGeometry>
        </mxCell>
        <mxCell id="NDZbGmGjMDrp22aeR6rB-35" value="5" style="shape=partialRectangle;html=1;whiteSpace=wrap;connectable=0;fillColor=none;top=0;left=0;bottom=0;right=0;overflow=hidden;" vertex="1" parent="NDZbGmGjMDrp22aeR6rB-32">
          <mxGeometry x="67" width="33" height="24" as="geometry">
            <mxRectangle width="33" height="24" as="alternateBounds" />
          </mxGeometry>
        </mxCell>
        <mxCell id="NDZbGmGjMDrp22aeR6rB-36" value="" style="shape=tableRow;horizontal=0;startSize=0;swimlaneHead=0;swimlaneBody=0;top=0;left=0;bottom=0;right=0;collapsible=0;dropTarget=0;fillColor=none;points=[[0,0.5],[1,0.5]];portConstraint=eastwest;" vertex="1" parent="NDZbGmGjMDrp22aeR6rB-27">
          <mxGeometry y="47" width="100" height="23" as="geometry" />
        </mxCell>
        <mxCell id="NDZbGmGjMDrp22aeR6rB-37" value="7" style="shape=partialRectangle;html=1;whiteSpace=wrap;connectable=0;fillColor=none;top=0;left=0;bottom=0;right=0;overflow=hidden;" vertex="1" parent="NDZbGmGjMDrp22aeR6rB-36">
          <mxGeometry width="35" height="23" as="geometry">
            <mxRectangle width="35" height="23" as="alternateBounds" />
          </mxGeometry>
        </mxCell>
        <mxCell id="NDZbGmGjMDrp22aeR6rB-38" value="8" style="shape=partialRectangle;html=1;whiteSpace=wrap;connectable=0;fillColor=none;top=0;left=0;bottom=0;right=0;overflow=hidden;" vertex="1" parent="NDZbGmGjMDrp22aeR6rB-36">
          <mxGeometry x="35" width="32" height="23" as="geometry">
            <mxRectangle width="32" height="23" as="alternateBounds" />
          </mxGeometry>
        </mxCell>
        <mxCell id="NDZbGmGjMDrp22aeR6rB-39" value="6" style="shape=partialRectangle;html=1;whiteSpace=wrap;connectable=0;fillColor=none;top=0;left=0;bottom=0;right=0;overflow=hidden;pointerEvents=1;" vertex="1" parent="NDZbGmGjMDrp22aeR6rB-36">
          <mxGeometry x="67" width="33" height="23" as="geometry">
            <mxRectangle width="33" height="23" as="alternateBounds" />
          </mxGeometry>
        </mxCell>
        <mxCell id="NDZbGmGjMDrp22aeR6rB-53" value="" style="shape=table;html=1;whiteSpace=wrap;startSize=0;container=1;collapsible=0;childLayout=tableLayout;" vertex="1" parent="1">
          <mxGeometry x="275" y="180" width="100" height="70" as="geometry" />
        </mxCell>
        <mxCell id="NDZbGmGjMDrp22aeR6rB-54" value="" style="shape=tableRow;horizontal=0;startSize=0;swimlaneHead=0;swimlaneBody=0;top=0;left=0;bottom=0;right=0;collapsible=0;dropTarget=0;fillColor=none;points=[[0,0.5],[1,0.5]];portConstraint=eastwest;" vertex="1" parent="NDZbGmGjMDrp22aeR6rB-53">
          <mxGeometry width="100" height="23" as="geometry" />
        </mxCell>
        <mxCell id="NDZbGmGjMDrp22aeR6rB-55" value="1" style="shape=partialRectangle;html=1;whiteSpace=wrap;connectable=0;fillColor=none;top=0;left=0;bottom=0;right=0;overflow=hidden;" vertex="1" parent="NDZbGmGjMDrp22aeR6rB-54">
          <mxGeometry width="35" height="23" as="geometry">
            <mxRectangle width="35" height="23" as="alternateBounds" />
          </mxGeometry>
        </mxCell>
        <mxCell id="NDZbGmGjMDrp22aeR6rB-56" value="2" style="shape=partialRectangle;html=1;whiteSpace=wrap;connectable=0;fillColor=none;top=0;left=0;bottom=0;right=0;overflow=hidden;" vertex="1" parent="NDZbGmGjMDrp22aeR6rB-54">
          <mxGeometry x="35" width="32" height="23" as="geometry">
            <mxRectangle width="32" height="23" as="alternateBounds" />
          </mxGeometry>
        </mxCell>
        <mxCell id="NDZbGmGjMDrp22aeR6rB-57" value="3" style="shape=partialRectangle;html=1;whiteSpace=wrap;connectable=0;fillColor=none;top=0;left=0;bottom=0;right=0;overflow=hidden;" vertex="1" parent="NDZbGmGjMDrp22aeR6rB-54">
          <mxGeometry x="67" width="33" height="23" as="geometry">
            <mxRectangle width="33" height="23" as="alternateBounds" />
          </mxGeometry>
        </mxCell>
        <mxCell id="NDZbGmGjMDrp22aeR6rB-58" value="" style="shape=tableRow;horizontal=0;startSize=0;swimlaneHead=0;swimlaneBody=0;top=0;left=0;bottom=0;right=0;collapsible=0;dropTarget=0;fillColor=none;points=[[0,0.5],[1,0.5]];portConstraint=eastwest;" vertex="1" parent="NDZbGmGjMDrp22aeR6rB-53">
          <mxGeometry y="23" width="100" height="24" as="geometry" />
        </mxCell>
        <mxCell id="NDZbGmGjMDrp22aeR6rB-59" value="" style="shape=partialRectangle;html=1;whiteSpace=wrap;connectable=0;fillColor=none;top=0;left=0;bottom=0;right=0;overflow=hidden;" vertex="1" parent="NDZbGmGjMDrp22aeR6rB-58">
          <mxGeometry width="35" height="24" as="geometry">
            <mxRectangle width="35" height="24" as="alternateBounds" />
          </mxGeometry>
        </mxCell>
        <mxCell id="NDZbGmGjMDrp22aeR6rB-60" value="4" style="shape=partialRectangle;html=1;whiteSpace=wrap;connectable=0;fillColor=none;top=0;left=0;bottom=0;right=0;overflow=hidden;" vertex="1" parent="NDZbGmGjMDrp22aeR6rB-58">
          <mxGeometry x="35" width="32" height="24" as="geometry">
            <mxRectangle width="32" height="24" as="alternateBounds" />
          </mxGeometry>
        </mxCell>
        <mxCell id="NDZbGmGjMDrp22aeR6rB-61" value="5" style="shape=partialRectangle;html=1;whiteSpace=wrap;connectable=0;fillColor=none;top=0;left=0;bottom=0;right=0;overflow=hidden;" vertex="1" parent="NDZbGmGjMDrp22aeR6rB-58">
          <mxGeometry x="67" width="33" height="24" as="geometry">
            <mxRectangle width="33" height="24" as="alternateBounds" />
          </mxGeometry>
        </mxCell>
        <mxCell id="NDZbGmGjMDrp22aeR6rB-62" value="" style="shape=tableRow;horizontal=0;startSize=0;swimlaneHead=0;swimlaneBody=0;top=0;left=0;bottom=0;right=0;collapsible=0;dropTarget=0;fillColor=none;points=[[0,0.5],[1,0.5]];portConstraint=eastwest;" vertex="1" parent="NDZbGmGjMDrp22aeR6rB-53">
          <mxGeometry y="47" width="100" height="23" as="geometry" />
        </mxCell>
        <mxCell id="NDZbGmGjMDrp22aeR6rB-63" value="7" style="shape=partialRectangle;html=1;whiteSpace=wrap;connectable=0;fillColor=none;top=0;left=0;bottom=0;right=0;overflow=hidden;" vertex="1" parent="NDZbGmGjMDrp22aeR6rB-62">
          <mxGeometry width="35" height="23" as="geometry">
            <mxRectangle width="35" height="23" as="alternateBounds" />
          </mxGeometry>
        </mxCell>
        <mxCell id="NDZbGmGjMDrp22aeR6rB-64" value="8" style="shape=partialRectangle;html=1;whiteSpace=wrap;connectable=0;fillColor=none;top=0;left=0;bottom=0;right=0;overflow=hidden;" vertex="1" parent="NDZbGmGjMDrp22aeR6rB-62">
          <mxGeometry x="35" width="32" height="23" as="geometry">
            <mxRectangle width="32" height="23" as="alternateBounds" />
          </mxGeometry>
        </mxCell>
        <mxCell id="NDZbGmGjMDrp22aeR6rB-65" value="6" style="shape=partialRectangle;html=1;whiteSpace=wrap;connectable=0;fillColor=none;top=0;left=0;bottom=0;right=0;overflow=hidden;pointerEvents=1;" vertex="1" parent="NDZbGmGjMDrp22aeR6rB-62">
          <mxGeometry x="67" width="33" height="23" as="geometry">
            <mxRectangle width="33" height="23" as="alternateBounds" />
          </mxGeometry>
        </mxCell>
        <mxCell id="NDZbGmGjMDrp22aeR6rB-66" value="" style="shape=table;html=1;whiteSpace=wrap;startSize=0;container=1;collapsible=0;childLayout=tableLayout;" vertex="1" parent="1">
          <mxGeometry x="165" y="340" width="100" height="70" as="geometry" />
        </mxCell>
        <mxCell id="NDZbGmGjMDrp22aeR6rB-67" value="" style="shape=tableRow;horizontal=0;startSize=0;swimlaneHead=0;swimlaneBody=0;top=0;left=0;bottom=0;right=0;collapsible=0;dropTarget=0;fillColor=none;points=[[0,0.5],[1,0.5]];portConstraint=eastwest;" vertex="1" parent="NDZbGmGjMDrp22aeR6rB-66">
          <mxGeometry width="100" height="23" as="geometry" />
        </mxCell>
        <mxCell id="NDZbGmGjMDrp22aeR6rB-68" value="1" style="shape=partialRectangle;html=1;whiteSpace=wrap;connectable=0;fillColor=none;top=0;left=0;bottom=0;right=0;overflow=hidden;" vertex="1" parent="NDZbGmGjMDrp22aeR6rB-67">
          <mxGeometry width="35" height="23" as="geometry">
            <mxRectangle width="35" height="23" as="alternateBounds" />
          </mxGeometry>
        </mxCell>
        <mxCell id="NDZbGmGjMDrp22aeR6rB-69" value="2" style="shape=partialRectangle;html=1;whiteSpace=wrap;connectable=0;fillColor=none;top=0;left=0;bottom=0;right=0;overflow=hidden;" vertex="1" parent="NDZbGmGjMDrp22aeR6rB-67">
          <mxGeometry x="35" width="32" height="23" as="geometry">
            <mxRectangle width="32" height="23" as="alternateBounds" />
          </mxGeometry>
        </mxCell>
        <mxCell id="NDZbGmGjMDrp22aeR6rB-70" value="3" style="shape=partialRectangle;html=1;whiteSpace=wrap;connectable=0;fillColor=none;top=0;left=0;bottom=0;right=0;overflow=hidden;" vertex="1" parent="NDZbGmGjMDrp22aeR6rB-67">
          <mxGeometry x="67" width="33" height="23" as="geometry">
            <mxRectangle width="33" height="23" as="alternateBounds" />
          </mxGeometry>
        </mxCell>
        <mxCell id="NDZbGmGjMDrp22aeR6rB-71" value="" style="shape=tableRow;horizontal=0;startSize=0;swimlaneHead=0;swimlaneBody=0;top=0;left=0;bottom=0;right=0;collapsible=0;dropTarget=0;fillColor=none;points=[[0,0.5],[1,0.5]];portConstraint=eastwest;" vertex="1" parent="NDZbGmGjMDrp22aeR6rB-66">
          <mxGeometry y="23" width="100" height="24" as="geometry" />
        </mxCell>
        <mxCell id="NDZbGmGjMDrp22aeR6rB-72" value="7" style="shape=partialRectangle;html=1;whiteSpace=wrap;connectable=0;fillColor=none;top=0;left=0;bottom=0;right=0;overflow=hidden;" vertex="1" parent="NDZbGmGjMDrp22aeR6rB-71">
          <mxGeometry width="35" height="24" as="geometry">
            <mxRectangle width="35" height="24" as="alternateBounds" />
          </mxGeometry>
        </mxCell>
        <mxCell id="NDZbGmGjMDrp22aeR6rB-73" value="4" style="shape=partialRectangle;html=1;whiteSpace=wrap;connectable=0;fillColor=none;top=0;left=0;bottom=0;right=0;overflow=hidden;" vertex="1" parent="NDZbGmGjMDrp22aeR6rB-71">
          <mxGeometry x="35" width="32" height="24" as="geometry">
            <mxRectangle width="32" height="24" as="alternateBounds" />
          </mxGeometry>
        </mxCell>
        <mxCell id="NDZbGmGjMDrp22aeR6rB-74" value="5" style="shape=partialRectangle;html=1;whiteSpace=wrap;connectable=0;fillColor=none;top=0;left=0;bottom=0;right=0;overflow=hidden;" vertex="1" parent="NDZbGmGjMDrp22aeR6rB-71">
          <mxGeometry x="67" width="33" height="24" as="geometry">
            <mxRectangle width="33" height="24" as="alternateBounds" />
          </mxGeometry>
        </mxCell>
        <mxCell id="NDZbGmGjMDrp22aeR6rB-75" value="" style="shape=tableRow;horizontal=0;startSize=0;swimlaneHead=0;swimlaneBody=0;top=0;left=0;bottom=0;right=0;collapsible=0;dropTarget=0;fillColor=none;points=[[0,0.5],[1,0.5]];portConstraint=eastwest;" vertex="1" parent="NDZbGmGjMDrp22aeR6rB-66">
          <mxGeometry y="47" width="100" height="23" as="geometry" />
        </mxCell>
        <mxCell id="NDZbGmGjMDrp22aeR6rB-76" value="" style="shape=partialRectangle;html=1;whiteSpace=wrap;connectable=0;fillColor=none;top=0;left=0;bottom=0;right=0;overflow=hidden;" vertex="1" parent="NDZbGmGjMDrp22aeR6rB-75">
          <mxGeometry width="35" height="23" as="geometry">
            <mxRectangle width="35" height="23" as="alternateBounds" />
          </mxGeometry>
        </mxCell>
        <mxCell id="NDZbGmGjMDrp22aeR6rB-77" value="8" style="shape=partialRectangle;html=1;whiteSpace=wrap;connectable=0;fillColor=none;top=0;left=0;bottom=0;right=0;overflow=hidden;" vertex="1" parent="NDZbGmGjMDrp22aeR6rB-75">
          <mxGeometry x="35" width="32" height="23" as="geometry">
            <mxRectangle width="32" height="23" as="alternateBounds" />
          </mxGeometry>
        </mxCell>
        <mxCell id="NDZbGmGjMDrp22aeR6rB-78" value="6" style="shape=partialRectangle;html=1;whiteSpace=wrap;connectable=0;fillColor=none;top=0;left=0;bottom=0;right=0;overflow=hidden;pointerEvents=1;" vertex="1" parent="NDZbGmGjMDrp22aeR6rB-75">
          <mxGeometry x="67" width="33" height="23" as="geometry">
            <mxRectangle width="33" height="23" as="alternateBounds" />
          </mxGeometry>
        </mxCell>
        <mxCell id="NDZbGmGjMDrp22aeR6rB-79" value="" style="shape=table;html=1;whiteSpace=wrap;startSize=0;container=1;collapsible=0;childLayout=tableLayout;" vertex="1" parent="1">
          <mxGeometry x="345" y="340" width="100" height="70" as="geometry" />
        </mxCell>
        <mxCell id="NDZbGmGjMDrp22aeR6rB-80" value="" style="shape=tableRow;horizontal=0;startSize=0;swimlaneHead=0;swimlaneBody=0;top=0;left=0;bottom=0;right=0;collapsible=0;dropTarget=0;fillColor=none;points=[[0,0.5],[1,0.5]];portConstraint=eastwest;" vertex="1" parent="NDZbGmGjMDrp22aeR6rB-79">
          <mxGeometry width="100" height="23" as="geometry" />
        </mxCell>
        <mxCell id="NDZbGmGjMDrp22aeR6rB-81" value="1" style="shape=partialRectangle;html=1;whiteSpace=wrap;connectable=0;fillColor=none;top=0;left=0;bottom=0;right=0;overflow=hidden;" vertex="1" parent="NDZbGmGjMDrp22aeR6rB-80">
          <mxGeometry width="35" height="23" as="geometry">
            <mxRectangle width="35" height="23" as="alternateBounds" />
          </mxGeometry>
        </mxCell>
        <mxCell id="NDZbGmGjMDrp22aeR6rB-82" value="2" style="shape=partialRectangle;html=1;whiteSpace=wrap;connectable=0;fillColor=none;top=0;left=0;bottom=0;right=0;overflow=hidden;" vertex="1" parent="NDZbGmGjMDrp22aeR6rB-80">
          <mxGeometry x="35" width="32" height="23" as="geometry">
            <mxRectangle width="32" height="23" as="alternateBounds" />
          </mxGeometry>
        </mxCell>
        <mxCell id="NDZbGmGjMDrp22aeR6rB-83" value="3" style="shape=partialRectangle;html=1;whiteSpace=wrap;connectable=0;fillColor=none;top=0;left=0;bottom=0;right=0;overflow=hidden;" vertex="1" parent="NDZbGmGjMDrp22aeR6rB-80">
          <mxGeometry x="67" width="33" height="23" as="geometry">
            <mxRectangle width="33" height="23" as="alternateBounds" />
          </mxGeometry>
        </mxCell>
        <mxCell id="NDZbGmGjMDrp22aeR6rB-84" value="" style="shape=tableRow;horizontal=0;startSize=0;swimlaneHead=0;swimlaneBody=0;top=0;left=0;bottom=0;right=0;collapsible=0;dropTarget=0;fillColor=none;points=[[0,0.5],[1,0.5]];portConstraint=eastwest;" vertex="1" parent="NDZbGmGjMDrp22aeR6rB-79">
          <mxGeometry y="23" width="100" height="24" as="geometry" />
        </mxCell>
        <mxCell id="NDZbGmGjMDrp22aeR6rB-85" value="4" style="shape=partialRectangle;html=1;whiteSpace=wrap;connectable=0;fillColor=none;top=0;left=0;bottom=0;right=0;overflow=hidden;" vertex="1" parent="NDZbGmGjMDrp22aeR6rB-84">
          <mxGeometry width="35" height="24" as="geometry">
            <mxRectangle width="35" height="24" as="alternateBounds" />
          </mxGeometry>
        </mxCell>
        <mxCell id="NDZbGmGjMDrp22aeR6rB-86" value="" style="shape=partialRectangle;html=1;whiteSpace=wrap;connectable=0;fillColor=none;top=0;left=0;bottom=0;right=0;overflow=hidden;" vertex="1" parent="NDZbGmGjMDrp22aeR6rB-84">
          <mxGeometry x="35" width="32" height="24" as="geometry">
            <mxRectangle width="32" height="24" as="alternateBounds" />
          </mxGeometry>
        </mxCell>
        <mxCell id="NDZbGmGjMDrp22aeR6rB-87" value="5" style="shape=partialRectangle;html=1;whiteSpace=wrap;connectable=0;fillColor=none;top=0;left=0;bottom=0;right=0;overflow=hidden;" vertex="1" parent="NDZbGmGjMDrp22aeR6rB-84">
          <mxGeometry x="67" width="33" height="24" as="geometry">
            <mxRectangle width="33" height="24" as="alternateBounds" />
          </mxGeometry>
        </mxCell>
        <mxCell id="NDZbGmGjMDrp22aeR6rB-88" value="" style="shape=tableRow;horizontal=0;startSize=0;swimlaneHead=0;swimlaneBody=0;top=0;left=0;bottom=0;right=0;collapsible=0;dropTarget=0;fillColor=none;points=[[0,0.5],[1,0.5]];portConstraint=eastwest;" vertex="1" parent="NDZbGmGjMDrp22aeR6rB-79">
          <mxGeometry y="47" width="100" height="23" as="geometry" />
        </mxCell>
        <mxCell id="NDZbGmGjMDrp22aeR6rB-89" value="7" style="shape=partialRectangle;html=1;whiteSpace=wrap;connectable=0;fillColor=none;top=0;left=0;bottom=0;right=0;overflow=hidden;" vertex="1" parent="NDZbGmGjMDrp22aeR6rB-88">
          <mxGeometry width="35" height="23" as="geometry">
            <mxRectangle width="35" height="23" as="alternateBounds" />
          </mxGeometry>
        </mxCell>
        <mxCell id="NDZbGmGjMDrp22aeR6rB-90" value="8" style="shape=partialRectangle;html=1;whiteSpace=wrap;connectable=0;fillColor=none;top=0;left=0;bottom=0;right=0;overflow=hidden;" vertex="1" parent="NDZbGmGjMDrp22aeR6rB-88">
          <mxGeometry x="35" width="32" height="23" as="geometry">
            <mxRectangle width="32" height="23" as="alternateBounds" />
          </mxGeometry>
        </mxCell>
        <mxCell id="NDZbGmGjMDrp22aeR6rB-91" value="6" style="shape=partialRectangle;html=1;whiteSpace=wrap;connectable=0;fillColor=none;top=0;left=0;bottom=0;right=0;overflow=hidden;pointerEvents=1;" vertex="1" parent="NDZbGmGjMDrp22aeR6rB-88">
          <mxGeometry x="67" width="33" height="23" as="geometry">
            <mxRectangle width="33" height="23" as="alternateBounds" />
          </mxGeometry>
        </mxCell>
        <mxCell id="NDZbGmGjMDrp22aeR6rB-92" value="" style="shape=table;html=1;whiteSpace=wrap;startSize=0;container=1;collapsible=0;childLayout=tableLayout;" vertex="1" parent="1">
          <mxGeometry x="125" y="500" width="100" height="70" as="geometry" />
        </mxCell>
        <mxCell id="NDZbGmGjMDrp22aeR6rB-93" value="" style="shape=tableRow;horizontal=0;startSize=0;swimlaneHead=0;swimlaneBody=0;top=0;left=0;bottom=0;right=0;collapsible=0;dropTarget=0;fillColor=none;points=[[0,0.5],[1,0.5]];portConstraint=eastwest;" vertex="1" parent="NDZbGmGjMDrp22aeR6rB-92">
          <mxGeometry width="100" height="23" as="geometry" />
        </mxCell>
        <mxCell id="NDZbGmGjMDrp22aeR6rB-94" value="1" style="shape=partialRectangle;html=1;whiteSpace=wrap;connectable=0;fillColor=none;top=0;left=0;bottom=0;right=0;overflow=hidden;" vertex="1" parent="NDZbGmGjMDrp22aeR6rB-93">
          <mxGeometry width="35" height="23" as="geometry">
            <mxRectangle width="35" height="23" as="alternateBounds" />
          </mxGeometry>
        </mxCell>
        <mxCell id="NDZbGmGjMDrp22aeR6rB-95" value="2" style="shape=partialRectangle;html=1;whiteSpace=wrap;connectable=0;fillColor=none;top=0;left=0;bottom=0;right=0;overflow=hidden;" vertex="1" parent="NDZbGmGjMDrp22aeR6rB-93">
          <mxGeometry x="35" width="32" height="23" as="geometry">
            <mxRectangle width="32" height="23" as="alternateBounds" />
          </mxGeometry>
        </mxCell>
        <mxCell id="NDZbGmGjMDrp22aeR6rB-96" value="3" style="shape=partialRectangle;html=1;whiteSpace=wrap;connectable=0;fillColor=none;top=0;left=0;bottom=0;right=0;overflow=hidden;" vertex="1" parent="NDZbGmGjMDrp22aeR6rB-93">
          <mxGeometry x="67" width="33" height="23" as="geometry">
            <mxRectangle width="33" height="23" as="alternateBounds" />
          </mxGeometry>
        </mxCell>
        <mxCell id="NDZbGmGjMDrp22aeR6rB-97" value="" style="shape=tableRow;horizontal=0;startSize=0;swimlaneHead=0;swimlaneBody=0;top=0;left=0;bottom=0;right=0;collapsible=0;dropTarget=0;fillColor=none;points=[[0,0.5],[1,0.5]];portConstraint=eastwest;" vertex="1" parent="NDZbGmGjMDrp22aeR6rB-92">
          <mxGeometry y="23" width="100" height="24" as="geometry" />
        </mxCell>
        <mxCell id="NDZbGmGjMDrp22aeR6rB-98" value="4" style="shape=partialRectangle;html=1;whiteSpace=wrap;connectable=0;fillColor=none;top=0;left=0;bottom=0;right=0;overflow=hidden;" vertex="1" parent="NDZbGmGjMDrp22aeR6rB-97">
          <mxGeometry width="35" height="24" as="geometry">
            <mxRectangle width="35" height="24" as="alternateBounds" />
          </mxGeometry>
        </mxCell>
        <mxCell id="NDZbGmGjMDrp22aeR6rB-99" value="8" style="shape=partialRectangle;html=1;whiteSpace=wrap;connectable=0;fillColor=none;top=0;left=0;bottom=0;right=0;overflow=hidden;" vertex="1" parent="NDZbGmGjMDrp22aeR6rB-97">
          <mxGeometry x="35" width="32" height="24" as="geometry">
            <mxRectangle width="32" height="24" as="alternateBounds" />
          </mxGeometry>
        </mxCell>
        <mxCell id="NDZbGmGjMDrp22aeR6rB-100" value="5" style="shape=partialRectangle;html=1;whiteSpace=wrap;connectable=0;fillColor=none;top=0;left=0;bottom=0;right=0;overflow=hidden;" vertex="1" parent="NDZbGmGjMDrp22aeR6rB-97">
          <mxGeometry x="67" width="33" height="24" as="geometry">
            <mxRectangle width="33" height="24" as="alternateBounds" />
          </mxGeometry>
        </mxCell>
        <mxCell id="NDZbGmGjMDrp22aeR6rB-101" value="" style="shape=tableRow;horizontal=0;startSize=0;swimlaneHead=0;swimlaneBody=0;top=0;left=0;bottom=0;right=0;collapsible=0;dropTarget=0;fillColor=none;points=[[0,0.5],[1,0.5]];portConstraint=eastwest;" vertex="1" parent="NDZbGmGjMDrp22aeR6rB-92">
          <mxGeometry y="47" width="100" height="23" as="geometry" />
        </mxCell>
        <mxCell id="NDZbGmGjMDrp22aeR6rB-102" value="7" style="shape=partialRectangle;html=1;whiteSpace=wrap;connectable=0;fillColor=none;top=0;left=0;bottom=0;right=0;overflow=hidden;" vertex="1" parent="NDZbGmGjMDrp22aeR6rB-101">
          <mxGeometry width="35" height="23" as="geometry">
            <mxRectangle width="35" height="23" as="alternateBounds" />
          </mxGeometry>
        </mxCell>
        <mxCell id="NDZbGmGjMDrp22aeR6rB-103" value="" style="shape=partialRectangle;html=1;whiteSpace=wrap;connectable=0;fillColor=none;top=0;left=0;bottom=0;right=0;overflow=hidden;" vertex="1" parent="NDZbGmGjMDrp22aeR6rB-101">
          <mxGeometry x="35" width="32" height="23" as="geometry">
            <mxRectangle width="32" height="23" as="alternateBounds" />
          </mxGeometry>
        </mxCell>
        <mxCell id="NDZbGmGjMDrp22aeR6rB-104" value="6" style="shape=partialRectangle;html=1;whiteSpace=wrap;connectable=0;fillColor=none;top=0;left=0;bottom=0;right=0;overflow=hidden;pointerEvents=1;" vertex="1" parent="NDZbGmGjMDrp22aeR6rB-101">
          <mxGeometry x="67" width="33" height="23" as="geometry">
            <mxRectangle width="33" height="23" as="alternateBounds" />
          </mxGeometry>
        </mxCell>
        <mxCell id="NDZbGmGjMDrp22aeR6rB-105" value="" style="shape=table;html=1;whiteSpace=wrap;startSize=0;container=1;collapsible=0;childLayout=tableLayout;" vertex="1" parent="1">
          <mxGeometry x="290" y="500" width="100" height="70" as="geometry" />
        </mxCell>
        <mxCell id="NDZbGmGjMDrp22aeR6rB-106" value="" style="shape=tableRow;horizontal=0;startSize=0;swimlaneHead=0;swimlaneBody=0;top=0;left=0;bottom=0;right=0;collapsible=0;dropTarget=0;fillColor=none;points=[[0,0.5],[1,0.5]];portConstraint=eastwest;" vertex="1" parent="NDZbGmGjMDrp22aeR6rB-105">
          <mxGeometry width="100" height="23" as="geometry" />
        </mxCell>
        <mxCell id="NDZbGmGjMDrp22aeR6rB-107" value="1" style="shape=partialRectangle;html=1;whiteSpace=wrap;connectable=0;fillColor=none;top=0;left=0;bottom=0;right=0;overflow=hidden;" vertex="1" parent="NDZbGmGjMDrp22aeR6rB-106">
          <mxGeometry width="35" height="23" as="geometry">
            <mxRectangle width="35" height="23" as="alternateBounds" />
          </mxGeometry>
        </mxCell>
        <mxCell id="NDZbGmGjMDrp22aeR6rB-108" value="" style="shape=partialRectangle;html=1;whiteSpace=wrap;connectable=0;fillColor=none;top=0;left=0;bottom=0;right=0;overflow=hidden;" vertex="1" parent="NDZbGmGjMDrp22aeR6rB-106">
          <mxGeometry x="35" width="32" height="23" as="geometry">
            <mxRectangle width="32" height="23" as="alternateBounds" />
          </mxGeometry>
        </mxCell>
        <mxCell id="NDZbGmGjMDrp22aeR6rB-109" value="3" style="shape=partialRectangle;html=1;whiteSpace=wrap;connectable=0;fillColor=none;top=0;left=0;bottom=0;right=0;overflow=hidden;" vertex="1" parent="NDZbGmGjMDrp22aeR6rB-106">
          <mxGeometry x="67" width="33" height="23" as="geometry">
            <mxRectangle width="33" height="23" as="alternateBounds" />
          </mxGeometry>
        </mxCell>
        <mxCell id="NDZbGmGjMDrp22aeR6rB-110" value="" style="shape=tableRow;horizontal=0;startSize=0;swimlaneHead=0;swimlaneBody=0;top=0;left=0;bottom=0;right=0;collapsible=0;dropTarget=0;fillColor=none;points=[[0,0.5],[1,0.5]];portConstraint=eastwest;" vertex="1" parent="NDZbGmGjMDrp22aeR6rB-105">
          <mxGeometry y="23" width="100" height="24" as="geometry" />
        </mxCell>
        <mxCell id="NDZbGmGjMDrp22aeR6rB-111" value="4" style="shape=partialRectangle;html=1;whiteSpace=wrap;connectable=0;fillColor=none;top=0;left=0;bottom=0;right=0;overflow=hidden;" vertex="1" parent="NDZbGmGjMDrp22aeR6rB-110">
          <mxGeometry width="35" height="24" as="geometry">
            <mxRectangle width="35" height="24" as="alternateBounds" />
          </mxGeometry>
        </mxCell>
        <mxCell id="NDZbGmGjMDrp22aeR6rB-112" value="2" style="shape=partialRectangle;html=1;whiteSpace=wrap;connectable=0;fillColor=none;top=0;left=0;bottom=0;right=0;overflow=hidden;" vertex="1" parent="NDZbGmGjMDrp22aeR6rB-110">
          <mxGeometry x="35" width="32" height="24" as="geometry">
            <mxRectangle width="32" height="24" as="alternateBounds" />
          </mxGeometry>
        </mxCell>
        <mxCell id="NDZbGmGjMDrp22aeR6rB-113" value="5" style="shape=partialRectangle;html=1;whiteSpace=wrap;connectable=0;fillColor=none;top=0;left=0;bottom=0;right=0;overflow=hidden;" vertex="1" parent="NDZbGmGjMDrp22aeR6rB-110">
          <mxGeometry x="67" width="33" height="24" as="geometry">
            <mxRectangle width="33" height="24" as="alternateBounds" />
          </mxGeometry>
        </mxCell>
        <mxCell id="NDZbGmGjMDrp22aeR6rB-114" value="" style="shape=tableRow;horizontal=0;startSize=0;swimlaneHead=0;swimlaneBody=0;top=0;left=0;bottom=0;right=0;collapsible=0;dropTarget=0;fillColor=none;points=[[0,0.5],[1,0.5]];portConstraint=eastwest;" vertex="1" parent="NDZbGmGjMDrp22aeR6rB-105">
          <mxGeometry y="47" width="100" height="23" as="geometry" />
        </mxCell>
        <mxCell id="NDZbGmGjMDrp22aeR6rB-115" value="7" style="shape=partialRectangle;html=1;whiteSpace=wrap;connectable=0;fillColor=none;top=0;left=0;bottom=0;right=0;overflow=hidden;" vertex="1" parent="NDZbGmGjMDrp22aeR6rB-114">
          <mxGeometry width="35" height="23" as="geometry">
            <mxRectangle width="35" height="23" as="alternateBounds" />
          </mxGeometry>
        </mxCell>
        <mxCell id="NDZbGmGjMDrp22aeR6rB-116" value="8" style="shape=partialRectangle;html=1;whiteSpace=wrap;connectable=0;fillColor=none;top=0;left=0;bottom=0;right=0;overflow=hidden;" vertex="1" parent="NDZbGmGjMDrp22aeR6rB-114">
          <mxGeometry x="35" width="32" height="23" as="geometry">
            <mxRectangle width="32" height="23" as="alternateBounds" />
          </mxGeometry>
        </mxCell>
        <mxCell id="NDZbGmGjMDrp22aeR6rB-117" value="6" style="shape=partialRectangle;html=1;whiteSpace=wrap;connectable=0;fillColor=none;top=0;left=0;bottom=0;right=0;overflow=hidden;pointerEvents=1;" vertex="1" parent="NDZbGmGjMDrp22aeR6rB-114">
          <mxGeometry x="67" width="33" height="23" as="geometry">
            <mxRectangle width="33" height="23" as="alternateBounds" />
          </mxGeometry>
        </mxCell>
        <mxCell id="NDZbGmGjMDrp22aeR6rB-118" value="" style="shape=table;html=1;whiteSpace=wrap;startSize=0;container=1;collapsible=0;childLayout=tableLayout;" vertex="1" parent="1">
          <mxGeometry x="485" y="500" width="100" height="70" as="geometry" />
        </mxCell>
        <mxCell id="NDZbGmGjMDrp22aeR6rB-119" value="" style="shape=tableRow;horizontal=0;startSize=0;swimlaneHead=0;swimlaneBody=0;top=0;left=0;bottom=0;right=0;collapsible=0;dropTarget=0;fillColor=none;points=[[0,0.5],[1,0.5]];portConstraint=eastwest;" vertex="1" parent="NDZbGmGjMDrp22aeR6rB-118">
          <mxGeometry width="100" height="23" as="geometry" />
        </mxCell>
        <mxCell id="NDZbGmGjMDrp22aeR6rB-120" value="1" style="shape=partialRectangle;html=1;whiteSpace=wrap;connectable=0;fillColor=none;top=0;left=0;bottom=0;right=0;overflow=hidden;" vertex="1" parent="NDZbGmGjMDrp22aeR6rB-119">
          <mxGeometry width="35" height="23" as="geometry">
            <mxRectangle width="35" height="23" as="alternateBounds" />
          </mxGeometry>
        </mxCell>
        <mxCell id="NDZbGmGjMDrp22aeR6rB-121" value="2" style="shape=partialRectangle;html=1;whiteSpace=wrap;connectable=0;fillColor=none;top=0;left=0;bottom=0;right=0;overflow=hidden;" vertex="1" parent="NDZbGmGjMDrp22aeR6rB-119">
          <mxGeometry x="35" width="32" height="23" as="geometry">
            <mxRectangle width="32" height="23" as="alternateBounds" />
          </mxGeometry>
        </mxCell>
        <mxCell id="NDZbGmGjMDrp22aeR6rB-122" value="3" style="shape=partialRectangle;html=1;whiteSpace=wrap;connectable=0;fillColor=none;top=0;left=0;bottom=0;right=0;overflow=hidden;" vertex="1" parent="NDZbGmGjMDrp22aeR6rB-119">
          <mxGeometry x="67" width="33" height="23" as="geometry">
            <mxRectangle width="33" height="23" as="alternateBounds" />
          </mxGeometry>
        </mxCell>
        <mxCell id="NDZbGmGjMDrp22aeR6rB-123" value="" style="shape=tableRow;horizontal=0;startSize=0;swimlaneHead=0;swimlaneBody=0;top=0;left=0;bottom=0;right=0;collapsible=0;dropTarget=0;fillColor=none;points=[[0,0.5],[1,0.5]];portConstraint=eastwest;" vertex="1" parent="NDZbGmGjMDrp22aeR6rB-118">
          <mxGeometry y="23" width="100" height="24" as="geometry" />
        </mxCell>
        <mxCell id="NDZbGmGjMDrp22aeR6rB-124" value="4" style="shape=partialRectangle;html=1;whiteSpace=wrap;connectable=0;fillColor=none;top=0;left=0;bottom=0;right=0;overflow=hidden;" vertex="1" parent="NDZbGmGjMDrp22aeR6rB-123">
          <mxGeometry width="35" height="24" as="geometry">
            <mxRectangle width="35" height="24" as="alternateBounds" />
          </mxGeometry>
        </mxCell>
        <mxCell id="NDZbGmGjMDrp22aeR6rB-125" value="5" style="shape=partialRectangle;html=1;whiteSpace=wrap;connectable=0;fillColor=none;top=0;left=0;bottom=0;right=0;overflow=hidden;" vertex="1" parent="NDZbGmGjMDrp22aeR6rB-123">
          <mxGeometry x="35" width="32" height="24" as="geometry">
            <mxRectangle width="32" height="24" as="alternateBounds" />
          </mxGeometry>
        </mxCell>
        <mxCell id="NDZbGmGjMDrp22aeR6rB-126" value="" style="shape=partialRectangle;html=1;whiteSpace=wrap;connectable=0;fillColor=none;top=0;left=0;bottom=0;right=0;overflow=hidden;" vertex="1" parent="NDZbGmGjMDrp22aeR6rB-123">
          <mxGeometry x="67" width="33" height="24" as="geometry">
            <mxRectangle width="33" height="24" as="alternateBounds" />
          </mxGeometry>
        </mxCell>
        <mxCell id="NDZbGmGjMDrp22aeR6rB-127" value="" style="shape=tableRow;horizontal=0;startSize=0;swimlaneHead=0;swimlaneBody=0;top=0;left=0;bottom=0;right=0;collapsible=0;dropTarget=0;fillColor=none;points=[[0,0.5],[1,0.5]];portConstraint=eastwest;" vertex="1" parent="NDZbGmGjMDrp22aeR6rB-118">
          <mxGeometry y="47" width="100" height="23" as="geometry" />
        </mxCell>
        <mxCell id="NDZbGmGjMDrp22aeR6rB-128" value="7" style="shape=partialRectangle;html=1;whiteSpace=wrap;connectable=0;fillColor=none;top=0;left=0;bottom=0;right=0;overflow=hidden;" vertex="1" parent="NDZbGmGjMDrp22aeR6rB-127">
          <mxGeometry width="35" height="23" as="geometry">
            <mxRectangle width="35" height="23" as="alternateBounds" />
          </mxGeometry>
        </mxCell>
        <mxCell id="NDZbGmGjMDrp22aeR6rB-129" value="8" style="shape=partialRectangle;html=1;whiteSpace=wrap;connectable=0;fillColor=none;top=0;left=0;bottom=0;right=0;overflow=hidden;" vertex="1" parent="NDZbGmGjMDrp22aeR6rB-127">
          <mxGeometry x="35" width="32" height="23" as="geometry">
            <mxRectangle width="32" height="23" as="alternateBounds" />
          </mxGeometry>
        </mxCell>
        <mxCell id="NDZbGmGjMDrp22aeR6rB-130" value="6" style="shape=partialRectangle;html=1;whiteSpace=wrap;connectable=0;fillColor=none;top=0;left=0;bottom=0;right=0;overflow=hidden;pointerEvents=1;" vertex="1" parent="NDZbGmGjMDrp22aeR6rB-127">
          <mxGeometry x="67" width="33" height="23" as="geometry">
            <mxRectangle width="33" height="23" as="alternateBounds" />
          </mxGeometry>
        </mxCell>
        <mxCell id="NDZbGmGjMDrp22aeR6rB-131" value="" style="shape=table;html=1;whiteSpace=wrap;startSize=0;container=1;collapsible=0;childLayout=tableLayout;" vertex="1" parent="1">
          <mxGeometry x="355" y="680" width="100" height="70" as="geometry" />
        </mxCell>
        <mxCell id="NDZbGmGjMDrp22aeR6rB-132" value="" style="shape=tableRow;horizontal=0;startSize=0;swimlaneHead=0;swimlaneBody=0;top=0;left=0;bottom=0;right=0;collapsible=0;dropTarget=0;fillColor=none;points=[[0,0.5],[1,0.5]];portConstraint=eastwest;" vertex="1" parent="NDZbGmGjMDrp22aeR6rB-131">
          <mxGeometry width="100" height="23" as="geometry" />
        </mxCell>
        <mxCell id="NDZbGmGjMDrp22aeR6rB-133" value="1" style="shape=partialRectangle;html=1;whiteSpace=wrap;connectable=0;fillColor=none;top=0;left=0;bottom=0;right=0;overflow=hidden;" vertex="1" parent="NDZbGmGjMDrp22aeR6rB-132">
          <mxGeometry width="35" height="23" as="geometry">
            <mxRectangle width="35" height="23" as="alternateBounds" />
          </mxGeometry>
        </mxCell>
        <mxCell id="NDZbGmGjMDrp22aeR6rB-134" value="2" style="shape=partialRectangle;html=1;whiteSpace=wrap;connectable=0;fillColor=none;top=0;left=0;bottom=0;right=0;overflow=hidden;" vertex="1" parent="NDZbGmGjMDrp22aeR6rB-132">
          <mxGeometry x="35" width="32" height="23" as="geometry">
            <mxRectangle width="32" height="23" as="alternateBounds" />
          </mxGeometry>
        </mxCell>
        <mxCell id="NDZbGmGjMDrp22aeR6rB-135" value="3" style="shape=partialRectangle;html=1;whiteSpace=wrap;connectable=0;fillColor=none;top=0;left=0;bottom=0;right=0;overflow=hidden;" vertex="1" parent="NDZbGmGjMDrp22aeR6rB-132">
          <mxGeometry x="67" width="33" height="23" as="geometry">
            <mxRectangle width="33" height="23" as="alternateBounds" />
          </mxGeometry>
        </mxCell>
        <mxCell id="NDZbGmGjMDrp22aeR6rB-136" value="" style="shape=tableRow;horizontal=0;startSize=0;swimlaneHead=0;swimlaneBody=0;top=0;left=0;bottom=0;right=0;collapsible=0;dropTarget=0;fillColor=none;points=[[0,0.5],[1,0.5]];portConstraint=eastwest;" vertex="1" parent="NDZbGmGjMDrp22aeR6rB-131">
          <mxGeometry y="23" width="100" height="24" as="geometry" />
        </mxCell>
        <mxCell id="NDZbGmGjMDrp22aeR6rB-137" value="4" style="shape=partialRectangle;html=1;whiteSpace=wrap;connectable=0;fillColor=none;top=0;left=0;bottom=0;right=0;overflow=hidden;" vertex="1" parent="NDZbGmGjMDrp22aeR6rB-136">
          <mxGeometry width="35" height="24" as="geometry">
            <mxRectangle width="35" height="24" as="alternateBounds" />
          </mxGeometry>
        </mxCell>
        <mxCell id="NDZbGmGjMDrp22aeR6rB-138" value="5" style="shape=partialRectangle;html=1;whiteSpace=wrap;connectable=0;fillColor=none;top=0;left=0;bottom=0;right=0;overflow=hidden;" vertex="1" parent="NDZbGmGjMDrp22aeR6rB-136">
          <mxGeometry x="35" width="32" height="24" as="geometry">
            <mxRectangle width="32" height="24" as="alternateBounds" />
          </mxGeometry>
        </mxCell>
        <mxCell id="NDZbGmGjMDrp22aeR6rB-139" value="6" style="shape=partialRectangle;html=1;whiteSpace=wrap;connectable=0;fillColor=none;top=0;left=0;bottom=0;right=0;overflow=hidden;" vertex="1" parent="NDZbGmGjMDrp22aeR6rB-136">
          <mxGeometry x="67" width="33" height="24" as="geometry">
            <mxRectangle width="33" height="24" as="alternateBounds" />
          </mxGeometry>
        </mxCell>
        <mxCell id="NDZbGmGjMDrp22aeR6rB-140" value="" style="shape=tableRow;horizontal=0;startSize=0;swimlaneHead=0;swimlaneBody=0;top=0;left=0;bottom=0;right=0;collapsible=0;dropTarget=0;fillColor=none;points=[[0,0.5],[1,0.5]];portConstraint=eastwest;" vertex="1" parent="NDZbGmGjMDrp22aeR6rB-131">
          <mxGeometry y="47" width="100" height="23" as="geometry" />
        </mxCell>
        <mxCell id="NDZbGmGjMDrp22aeR6rB-141" value="7" style="shape=partialRectangle;html=1;whiteSpace=wrap;connectable=0;fillColor=none;top=0;left=0;bottom=0;right=0;overflow=hidden;" vertex="1" parent="NDZbGmGjMDrp22aeR6rB-140">
          <mxGeometry width="35" height="23" as="geometry">
            <mxRectangle width="35" height="23" as="alternateBounds" />
          </mxGeometry>
        </mxCell>
        <mxCell id="NDZbGmGjMDrp22aeR6rB-142" value="8" style="shape=partialRectangle;html=1;whiteSpace=wrap;connectable=0;fillColor=none;top=0;left=0;bottom=0;right=0;overflow=hidden;" vertex="1" parent="NDZbGmGjMDrp22aeR6rB-140">
          <mxGeometry x="35" width="32" height="23" as="geometry">
            <mxRectangle width="32" height="23" as="alternateBounds" />
          </mxGeometry>
        </mxCell>
        <mxCell id="NDZbGmGjMDrp22aeR6rB-143" value="" style="shape=partialRectangle;html=1;whiteSpace=wrap;connectable=0;fillColor=none;top=0;left=0;bottom=0;right=0;overflow=hidden;pointerEvents=1;" vertex="1" parent="NDZbGmGjMDrp22aeR6rB-140">
          <mxGeometry x="67" width="33" height="23" as="geometry">
            <mxRectangle width="33" height="23" as="alternateBounds" />
          </mxGeometry>
        </mxCell>
        <mxCell id="NDZbGmGjMDrp22aeR6rB-144" value="" style="shape=table;html=1;whiteSpace=wrap;startSize=0;container=1;collapsible=0;childLayout=tableLayout;" vertex="1" parent="1">
          <mxGeometry x="535" y="680" width="100" height="70" as="geometry" />
        </mxCell>
        <mxCell id="NDZbGmGjMDrp22aeR6rB-145" value="" style="shape=tableRow;horizontal=0;startSize=0;swimlaneHead=0;swimlaneBody=0;top=0;left=0;bottom=0;right=0;collapsible=0;dropTarget=0;fillColor=none;points=[[0,0.5],[1,0.5]];portConstraint=eastwest;" vertex="1" parent="NDZbGmGjMDrp22aeR6rB-144">
          <mxGeometry width="100" height="23" as="geometry" />
        </mxCell>
        <mxCell id="NDZbGmGjMDrp22aeR6rB-146" value="1" style="shape=partialRectangle;html=1;whiteSpace=wrap;connectable=0;fillColor=none;top=0;left=0;bottom=0;right=0;overflow=hidden;" vertex="1" parent="NDZbGmGjMDrp22aeR6rB-145">
          <mxGeometry width="35" height="23" as="geometry">
            <mxRectangle width="35" height="23" as="alternateBounds" />
          </mxGeometry>
        </mxCell>
        <mxCell id="NDZbGmGjMDrp22aeR6rB-147" value="2" style="shape=partialRectangle;html=1;whiteSpace=wrap;connectable=0;fillColor=none;top=0;left=0;bottom=0;right=0;overflow=hidden;" vertex="1" parent="NDZbGmGjMDrp22aeR6rB-145">
          <mxGeometry x="35" width="32" height="23" as="geometry">
            <mxRectangle width="32" height="23" as="alternateBounds" />
          </mxGeometry>
        </mxCell>
        <mxCell id="NDZbGmGjMDrp22aeR6rB-148" value="" style="shape=partialRectangle;html=1;whiteSpace=wrap;connectable=0;fillColor=none;top=0;left=0;bottom=0;right=0;overflow=hidden;" vertex="1" parent="NDZbGmGjMDrp22aeR6rB-145">
          <mxGeometry x="67" width="33" height="23" as="geometry">
            <mxRectangle width="33" height="23" as="alternateBounds" />
          </mxGeometry>
        </mxCell>
        <mxCell id="NDZbGmGjMDrp22aeR6rB-149" value="" style="shape=tableRow;horizontal=0;startSize=0;swimlaneHead=0;swimlaneBody=0;top=0;left=0;bottom=0;right=0;collapsible=0;dropTarget=0;fillColor=none;points=[[0,0.5],[1,0.5]];portConstraint=eastwest;" vertex="1" parent="NDZbGmGjMDrp22aeR6rB-144">
          <mxGeometry y="23" width="100" height="24" as="geometry" />
        </mxCell>
        <mxCell id="NDZbGmGjMDrp22aeR6rB-150" value="4" style="shape=partialRectangle;html=1;whiteSpace=wrap;connectable=0;fillColor=none;top=0;left=0;bottom=0;right=0;overflow=hidden;" vertex="1" parent="NDZbGmGjMDrp22aeR6rB-149">
          <mxGeometry width="35" height="24" as="geometry">
            <mxRectangle width="35" height="24" as="alternateBounds" />
          </mxGeometry>
        </mxCell>
        <mxCell id="NDZbGmGjMDrp22aeR6rB-151" value="5" style="shape=partialRectangle;html=1;whiteSpace=wrap;connectable=0;fillColor=none;top=0;left=0;bottom=0;right=0;overflow=hidden;" vertex="1" parent="NDZbGmGjMDrp22aeR6rB-149">
          <mxGeometry x="35" width="32" height="24" as="geometry">
            <mxRectangle width="32" height="24" as="alternateBounds" />
          </mxGeometry>
        </mxCell>
        <mxCell id="NDZbGmGjMDrp22aeR6rB-152" value="3" style="shape=partialRectangle;html=1;whiteSpace=wrap;connectable=0;fillColor=none;top=0;left=0;bottom=0;right=0;overflow=hidden;" vertex="1" parent="NDZbGmGjMDrp22aeR6rB-149">
          <mxGeometry x="67" width="33" height="24" as="geometry">
            <mxRectangle width="33" height="24" as="alternateBounds" />
          </mxGeometry>
        </mxCell>
        <mxCell id="NDZbGmGjMDrp22aeR6rB-153" value="" style="shape=tableRow;horizontal=0;startSize=0;swimlaneHead=0;swimlaneBody=0;top=0;left=0;bottom=0;right=0;collapsible=0;dropTarget=0;fillColor=none;points=[[0,0.5],[1,0.5]];portConstraint=eastwest;" vertex="1" parent="NDZbGmGjMDrp22aeR6rB-144">
          <mxGeometry y="47" width="100" height="23" as="geometry" />
        </mxCell>
        <mxCell id="NDZbGmGjMDrp22aeR6rB-154" value="7" style="shape=partialRectangle;html=1;whiteSpace=wrap;connectable=0;fillColor=none;top=0;left=0;bottom=0;right=0;overflow=hidden;" vertex="1" parent="NDZbGmGjMDrp22aeR6rB-153">
          <mxGeometry width="35" height="23" as="geometry">
            <mxRectangle width="35" height="23" as="alternateBounds" />
          </mxGeometry>
        </mxCell>
        <mxCell id="NDZbGmGjMDrp22aeR6rB-155" value="8" style="shape=partialRectangle;html=1;whiteSpace=wrap;connectable=0;fillColor=none;top=0;left=0;bottom=0;right=0;overflow=hidden;" vertex="1" parent="NDZbGmGjMDrp22aeR6rB-153">
          <mxGeometry x="35" width="32" height="23" as="geometry">
            <mxRectangle width="32" height="23" as="alternateBounds" />
          </mxGeometry>
        </mxCell>
        <mxCell id="NDZbGmGjMDrp22aeR6rB-156" value="6" style="shape=partialRectangle;html=1;whiteSpace=wrap;connectable=0;fillColor=none;top=0;left=0;bottom=0;right=0;overflow=hidden;pointerEvents=1;" vertex="1" parent="NDZbGmGjMDrp22aeR6rB-153">
          <mxGeometry x="67" width="33" height="23" as="geometry">
            <mxRectangle width="33" height="23" as="alternateBounds" />
          </mxGeometry>
        </mxCell>
        <mxCell id="NDZbGmGjMDrp22aeR6rB-157" value="" style="endArrow=classic;html=1;rounded=0;exitX=0.545;exitY=1.12;exitDx=0;exitDy=0;exitPerimeter=0;" edge="1" parent="1" source="NDZbGmGjMDrp22aeR6rB-10" target="NDZbGmGjMDrp22aeR6rB-28">
          <mxGeometry width="50" height="50" relative="1" as="geometry">
            <mxPoint x="365" y="350" as="sourcePoint" />
            <mxPoint x="415" y="300" as="targetPoint" />
          </mxGeometry>
        </mxCell>
        <mxCell id="NDZbGmGjMDrp22aeR6rB-158" value="" style="endArrow=classic;html=1;rounded=0;exitX=0.564;exitY=1.038;exitDx=0;exitDy=0;exitPerimeter=0;entryX=0.498;entryY=-0.1;entryDx=0;entryDy=0;entryPerimeter=0;" edge="1" parent="1" source="NDZbGmGjMDrp22aeR6rB-10" target="NDZbGmGjMDrp22aeR6rB-54">
          <mxGeometry width="50" height="50" relative="1" as="geometry">
            <mxPoint x="415" y="170" as="sourcePoint" />
            <mxPoint x="465" y="120" as="targetPoint" />
          </mxGeometry>
        </mxCell>
        <mxCell id="NDZbGmGjMDrp22aeR6rB-159" value="" style="endArrow=classic;html=1;rounded=0;" edge="1" parent="1" target="NDZbGmGjMDrp22aeR6rB-67">
          <mxGeometry width="50" height="50" relative="1" as="geometry">
            <mxPoint x="325" y="250" as="sourcePoint" />
            <mxPoint x="334.8000000000002" y="187.69999999999993" as="targetPoint" />
          </mxGeometry>
        </mxCell>
        <mxCell id="NDZbGmGjMDrp22aeR6rB-160" value="" style="endArrow=classic;html=1;rounded=0;exitX=0.526;exitY=0.967;exitDx=0;exitDy=0;exitPerimeter=0;entryX=0.514;entryY=-0.059;entryDx=0;entryDy=0;entryPerimeter=0;" edge="1" parent="1" source="NDZbGmGjMDrp22aeR6rB-62" target="NDZbGmGjMDrp22aeR6rB-80">
          <mxGeometry width="50" height="50" relative="1" as="geometry">
            <mxPoint x="335.79999999999995" y="263.9330000000001" as="sourcePoint" />
            <mxPoint x="238.05974356083527" y="350" as="targetPoint" />
          </mxGeometry>
        </mxCell>
        <mxCell id="NDZbGmGjMDrp22aeR6rB-161" value="" style="endArrow=classic;html=1;rounded=0;exitX=0.485;exitY=1.049;exitDx=0;exitDy=0;exitPerimeter=0;entryX=0.495;entryY=-0.059;entryDx=0;entryDy=0;entryPerimeter=0;" edge="1" parent="1" source="NDZbGmGjMDrp22aeR6rB-88" target="NDZbGmGjMDrp22aeR6rB-93">
          <mxGeometry width="50" height="50" relative="1" as="geometry">
            <mxPoint x="337.60000000000014" y="259.2410000000001" as="sourcePoint" />
            <mxPoint x="406.4000000000001" y="348.64300000000003" as="targetPoint" />
          </mxGeometry>
        </mxCell>
        <mxCell id="NDZbGmGjMDrp22aeR6rB-162" value="" style="endArrow=classic;html=1;rounded=0;exitX=0.485;exitY=1.09;exitDx=0;exitDy=0;exitPerimeter=0;entryX=0.491;entryY=-0.1;entryDx=0;entryDy=0;entryPerimeter=0;" edge="1" parent="1" source="NDZbGmGjMDrp22aeR6rB-88" target="NDZbGmGjMDrp22aeR6rB-106">
          <mxGeometry width="50" height="50" relative="1" as="geometry">
            <mxPoint x="403.5" y="421.1270000000002" as="sourcePoint" />
            <mxPoint x="244.5000000000001" y="508.64300000000003" as="targetPoint" />
          </mxGeometry>
        </mxCell>
        <mxCell id="NDZbGmGjMDrp22aeR6rB-163" value="" style="endArrow=classic;html=1;rounded=0;entryX=0.459;entryY=-0.223;entryDx=0;entryDy=0;entryPerimeter=0;" edge="1" parent="1" target="NDZbGmGjMDrp22aeR6rB-119">
          <mxGeometry width="50" height="50" relative="1" as="geometry">
            <mxPoint x="394" y="410" as="sourcePoint" />
            <mxPoint x="394.10000000000014" y="507.70000000000005" as="targetPoint" />
          </mxGeometry>
        </mxCell>
        <mxCell id="NDZbGmGjMDrp22aeR6rB-164" value="" style="endArrow=classic;html=1;rounded=0;" edge="1" parent="1" target="NDZbGmGjMDrp22aeR6rB-132">
          <mxGeometry width="50" height="50" relative="1" as="geometry">
            <mxPoint x="535" y="570" as="sourcePoint" />
            <mxPoint x="540.9000000000001" y="504.8710000000001" as="targetPoint" />
          </mxGeometry>
        </mxCell>
        <mxCell id="NDZbGmGjMDrp22aeR6rB-165" value="" style="endArrow=classic;html=1;rounded=0;exitX=0.535;exitY=1.049;exitDx=0;exitDy=0;exitPerimeter=0;entryX=0.515;entryY=0.054;entryDx=0;entryDy=0;entryPerimeter=0;" edge="1" parent="1" source="NDZbGmGjMDrp22aeR6rB-127" target="NDZbGmGjMDrp22aeR6rB-145">
          <mxGeometry width="50" height="50" relative="1" as="geometry">
            <mxPoint x="535.4887218045112" y="579.9999999999998" as="sourcePoint" />
            <mxPoint x="444.5112781954888" y="689.9999999999998" as="targetPoint" />
          </mxGeometry>
        </mxCell>
        <mxCell id="NDZbGmGjMDrp22aeR6rB-166" value="0+4" style="text;html=1;align=center;verticalAlign=middle;resizable=0;points=[];autosize=1;strokeColor=none;fillColor=none;fontSize=16;" vertex="1" parent="1">
          <mxGeometry x="290" y="65" width="40" height="20" as="geometry" />
        </mxCell>
        <mxCell id="NDZbGmGjMDrp22aeR6rB-167" value="1+3" style="text;html=1;align=center;verticalAlign=middle;resizable=0;points=[];autosize=1;strokeColor=none;fillColor=none;fontSize=16;" vertex="1" parent="1">
          <mxGeometry x="185" y="200" width="40" height="20" as="geometry" />
        </mxCell>
        <mxCell id="NDZbGmGjMDrp22aeR6rB-168" value="1+5" style="text;html=1;align=center;verticalAlign=middle;resizable=0;points=[];autosize=1;strokeColor=none;fillColor=none;fontSize=16;" vertex="1" parent="1">
          <mxGeometry x="385" y="205" width="40" height="20" as="geometry" />
        </mxCell>
        <mxCell id="NDZbGmGjMDrp22aeR6rB-169" value="2+4" style="text;html=1;align=center;verticalAlign=middle;resizable=0;points=[];autosize=1;strokeColor=none;fillColor=none;fontSize=16;" vertex="1" parent="1">
          <mxGeometry x="275" y="365" width="40" height="20" as="geometry" />
        </mxCell>
        <mxCell id="NDZbGmGjMDrp22aeR6rB-170" value="2+5" style="text;html=1;align=center;verticalAlign=middle;resizable=0;points=[];autosize=1;strokeColor=none;fillColor=none;fontSize=16;" vertex="1" parent="1">
          <mxGeometry x="445" y="365" width="40" height="20" as="geometry" />
        </mxCell>
        <mxCell id="NDZbGmGjMDrp22aeR6rB-171" value="3+5" style="text;html=1;align=center;verticalAlign=middle;resizable=0;points=[];autosize=1;strokeColor=none;fillColor=none;fontSize=16;" vertex="1" parent="1">
          <mxGeometry x="225" y="525" width="40" height="20" as="geometry" />
        </mxCell>
        <mxCell id="NDZbGmGjMDrp22aeR6rB-173" value="3+5" style="text;html=1;align=center;verticalAlign=middle;resizable=0;points=[];autosize=1;strokeColor=none;fillColor=none;fontSize=16;" vertex="1" parent="1">
          <mxGeometry x="390" y="525" width="40" height="20" as="geometry" />
        </mxCell>
        <mxCell id="NDZbGmGjMDrp22aeR6rB-174" value="3+7" style="text;html=1;align=center;verticalAlign=middle;resizable=0;points=[];autosize=1;strokeColor=none;fillColor=none;fontSize=16;" vertex="1" parent="1">
          <mxGeometry x="585" y="525" width="40" height="20" as="geometry" />
        </mxCell>
        <mxCell id="NDZbGmGjMDrp22aeR6rB-175" value="4+8" style="text;html=1;align=center;verticalAlign=middle;resizable=0;points=[];autosize=1;strokeColor=none;fillColor=none;fontSize=16;" vertex="1" parent="1">
          <mxGeometry x="455" y="705" width="40" height="20" as="geometry" />
        </mxCell>
        <mxCell id="NDZbGmGjMDrp22aeR6rB-176" value="4+6" style="text;html=1;align=center;verticalAlign=middle;resizable=0;points=[];autosize=1;strokeColor=none;fillColor=none;fontSize=16;" vertex="1" parent="1">
          <mxGeometry x="635" y="705" width="40" height="20" as="geometry" />
        </mxCell>
      </root>
    </mxGraphModel>
  </diagram>
</mxfile>
